<?xml version="1.0" encoding="utf-8"?>
<!-- Generator: Adobe Illustrator 14.0.0, SVG Export Plug-In . SVG Version: 6.00 Build 43363)  -->
<!DOCTYPE svg PUBLIC "-//W3C//DTD SVG 1.1//EN" "http://www.w3.org/Graphics/SVG/1.1/DTD/svg11.dtd">
<svg version="1.1" id="Layer_1" xmlns="http://www.w3.org/2000/svg" xmlns:xlink="http://www.w3.org/1999/xlink" x="0px" y="0px"
	 width="575px" height="284px" viewBox="0 0 575 284" enable-background="new 0 0 575 284" xml:space="preserve">
<g>
	<defs>
		<path id="SVGID_1_" d="M406.23,148.676l8.157-13.328l14.59-0.783l5.179,8L406.23,148.676L406.23,148.676z M77.441,122.793
			l74.996,20.246l4.17,8.418l-10.502,9.668l5.915,15.166l15.583-0.834l2.919,7.166l-64.417,18.502l15.583-21.916
			c0,0,20.588,0.418,20.588-0.834c0-1.25-3.753-11.336-3.753-11.336s-2.502-3.412-1.251-5.914c1.251-2.502,5.005-4.246,2.085-5.498
			s-5.421,1.252-9.251,1.252c-3.83,0-16-3.754-16-3.754s-0.911-5.916-4.247-6.332c-3.336-0.418-17.668-2.502-17.668-2.502
			L77.441,122.793L77.441,122.793z M178.939,189.295c0-1.25-27.753-65.668-27.753-65.668l14.672,8.834l2.996,8.834l16.834,3.83
			l-6.749-12.664l-8.417-6.255l-17.668-54.332c0,0,0.341-3.336,3.336-0.417c2.996,2.919,19.413,21.004,19.413,21.004l16.834,53.914
			l7.166,1.252l-4.664-15.583l25.251,30.331l0.417,12.248h31.583l-13.081,16.416l-4.587,1.252l-0.417,14.748l-3.875,4.697
			l-0.94-25.41l4.396-0.941l6.747-4.865l-19.612,1.104c0,0,0,11.912-0.47,14.582c-0.47,2.672-3.761,11.77-3.761,11.77l-13.962-51.77
			l-29.179-1.723l9.097,21.648C182.544,176.131,178.939,190.547,178.939,189.295L178.939,189.295z M233.529,154.326l22.276,3.455
			c0,0,5.485,6.582,5.485,7.209s-20.545,1.104-20.545,1.104L233.529,154.326L233.529,154.326z M247.648,186.795
			c0,0,34.037-16,34.978-15.373c0.94,0.627,4.709,2.828,4.709,2.828l-27.769,19.762L247.648,186.795L247.648,186.795z
			 M220.193,155.893l-24.313-25.567l1.411-7.06l23.373,23.217L220.193,155.893L220.193,155.893z M220.663,141.938l-23.53-21.963
			v-5.963l11.455,0.313l12.702,16.313L220.663,141.938L220.663,141.938z M273.842,165.146c-0.157-0.471-3.925-4.074-3.925-4.074
			l-9.411-94.59l4.082-7.216l16.313,10.194l-0.47,64.164c0,0,36.858-2.671,37.329-2.828c0.47-0.157,3.926-43.134,3.926-43.134
			l16.94,30.59l-6.59,45.329l-8.471,10.828l-6.433-7.531l2.045-15.059c0,0,8.94-3.455,8.94-3.926s-1.262-4.074-1.262-4.074
			l-9.41,4.074l0.47-6.433l-6.582,0.478l-20.865,67.918l-0.156-50.037l9.724-14.277l-3.448-7.686l-2.358-0.156l-1.254,4.866
			l-11.76-0.471l0.313,8.314C281.529,150.408,273.999,165.617,273.842,165.146L273.842,165.146z M344.119,129.699l11.604,14.903
			l-7.06,27.918l-33.254,42.672l-8.471,2.82l29.963-50.193L344.119,129.699L344.119,129.699z M359.648,154.482
			c1.411,0,19.762-0.156,19.762-0.156l7.843-6.59l24-61.172l18.664-14.12l5.18,0.47l-3.135,5.336l-0.626,4.858l-29.18,65.723
			l-10.351,6.59l2.351,2.986l6.276-4.082L418,153.385l-3.77,6.434l-24.939,9.254l1.41,6.59l-10.508,8.939l-6.902,13.807
			l-10.978,11.133l0.783-5.648l14.119-32.312l-8.783,0.312l-1.889,6.275l-9.724,5.023l2.202,3.291l-22.903,18.82l-9.731,0.635
			l29.179-33.262C355.566,172.676,359.961,154.795,359.648,154.482L359.648,154.482z M408.746,168.914l56-26.037l11.604,0.314
			l-60.858,33.566L408.746,168.914L408.746,168.914z"/>
	</defs>
	<clipPath id="SVGID_2_">
		<use xlink:href="#SVGID_1_"  overflow="visible"/>
	</clipPath>
	<rect x="77.44" y="59.1" clip-path="url(#SVGID_2_)" fill="#FFEA00" width="398.88" height="48.48"/>
	<rect x="77.44" y="107.121" clip-path="url(#SVGID_2_)" fill="#FFEA00" width="398.88" height="0.96"/>
	<rect x="77.44" y="108.122" clip-path="url(#SVGID_2_)" fill="#FFE800" width="398.88" height="0.96"/>
	<rect x="77.44" y="109.123" clip-path="url(#SVGID_2_)" fill="#FFE600" width="398.88" height="0.96"/>
	<rect x="77.44" y="110.123" clip-path="url(#SVGID_2_)" fill="#FFE500" width="398.88" height="0.96"/>
	<rect x="77.44" y="111.124" clip-path="url(#SVGID_2_)" fill="#FFE300" width="398.88" height="0.96"/>
	<rect x="77.44" y="112.125" clip-path="url(#SVGID_2_)" fill="#FFE100" width="398.88" height="0.96"/>
	<rect x="77.44" y="113.125" clip-path="url(#SVGID_2_)" fill="#FFDF00" width="398.88" height="0.96"/>
	<rect x="77.44" y="114.126" clip-path="url(#SVGID_2_)" fill="#FFDD00" width="398.88" height="0.96"/>
	<rect x="77.44" y="115.126" clip-path="url(#SVGID_2_)" fill="#FFDB00" width="398.88" height="0.96"/>
	<rect x="77.44" y="116.127" clip-path="url(#SVGID_2_)" fill="#FFDA00" width="398.88" height="0.96"/>
	<rect x="77.44" y="117.128" clip-path="url(#SVGID_2_)" fill="#FFD800" width="398.88" height="0.96"/>
	<rect x="77.44" y="118.129" clip-path="url(#SVGID_2_)" fill="#FFD600" width="398.88" height="0.96"/>
	<rect x="77.44" y="119.13" clip-path="url(#SVGID_2_)" fill="#FFD400" width="398.88" height="0.96"/>
	<rect x="77.44" y="120.13" clip-path="url(#SVGID_2_)" fill="#FFD200" width="398.88" height="0.96"/>
	<rect x="77.44" y="121.131" clip-path="url(#SVGID_2_)" fill="#FFD100" width="398.88" height="0.96"/>
	<rect x="77.44" y="122.132" clip-path="url(#SVGID_2_)" fill="#FFCF01" width="398.88" height="0.96"/>
	<rect x="77.44" y="123.133" clip-path="url(#SVGID_2_)" fill="#FFCD03" width="398.88" height="0.96"/>
	<rect x="77.44" y="124.133" clip-path="url(#SVGID_2_)" fill="#FFCB05" width="398.88" height="0.96"/>
	<rect x="77.44" y="125.134" clip-path="url(#SVGID_2_)" fill="#FFC907" width="398.88" height="0.96"/>
	<rect x="77.44" y="126.135" clip-path="url(#SVGID_2_)" fill="#FFC709" width="398.88" height="0.96"/>
	<rect x="77.44" y="127.135" clip-path="url(#SVGID_2_)" fill="#FFC60B" width="398.88" height="0.96"/>
	<rect x="77.44" y="128.136" clip-path="url(#SVGID_2_)" fill="#FFC40C" width="398.88" height="0.96"/>
	<rect x="77.44" y="129.137" clip-path="url(#SVGID_2_)" fill="#FFC20E" width="398.88" height="0.96"/>
	<rect x="77.44" y="130.138" clip-path="url(#SVGID_2_)" fill="#FEC00F" width="398.88" height="0.96"/>
	<rect x="77.44" y="131.138" clip-path="url(#SVGID_2_)" fill="#FEBE10" width="398.88" height="0.96"/>
	<rect x="77.44" y="132.139" clip-path="url(#SVGID_2_)" fill="#FEBC11" width="398.88" height="0.96"/>
	<rect x="77.44" y="133.14" clip-path="url(#SVGID_2_)" fill="#FDBA12" width="398.88" height="0.96"/>
	<rect x="77.44" y="134.141" clip-path="url(#SVGID_2_)" fill="#FDB913" width="398.88" height="0.96"/>
	<rect x="77.44" y="135.141" clip-path="url(#SVGID_2_)" fill="#FDB714" width="398.88" height="0.96"/>
	<rect x="77.44" y="136.142" clip-path="url(#SVGID_2_)" fill="#FDB515" width="398.88" height="0.96"/>
	<rect x="77.44" y="137.143" clip-path="url(#SVGID_2_)" fill="#FCB316" width="398.88" height="0.96"/>
	<rect x="77.44" y="138.144" clip-path="url(#SVGID_2_)" fill="#FCB116" width="398.88" height="0.96"/>
	<rect x="77.44" y="139.144" clip-path="url(#SVGID_2_)" fill="#FCAF17" width="398.88" height="0.96"/>
	<rect x="77.44" y="140.145" clip-path="url(#SVGID_2_)" fill="#FBAD18" width="398.88" height="0.96"/>
	<rect x="77.44" y="141.146" clip-path="url(#SVGID_2_)" fill="#FBAB18" width="398.88" height="0.959"/>
	<rect x="77.44" y="142.146" clip-path="url(#SVGID_2_)" fill="#FBAA19" width="398.88" height="0.961"/>
	<rect x="77.44" y="143.146" clip-path="url(#SVGID_2_)" fill="#FAA819" width="398.88" height="0.961"/>
	<rect x="77.44" y="144.148" clip-path="url(#SVGID_2_)" fill="#FAA61A" width="398.88" height="0.959"/>
	<rect x="77.44" y="145.148" clip-path="url(#SVGID_2_)" fill="#FAA41A" width="398.88" height="0.961"/>
	<rect x="77.44" y="146.15" clip-path="url(#SVGID_2_)" fill="#FAA21B" width="398.88" height="0.959"/>
	<rect x="77.44" y="147.15" clip-path="url(#SVGID_2_)" fill="#F9A01B" width="398.88" height="0.959"/>
	<rect x="77.44" y="148.15" clip-path="url(#SVGID_2_)" fill="#F99F1C" width="398.88" height="0.961"/>
	<rect x="77.44" y="149.152" clip-path="url(#SVGID_2_)" fill="#F99D1C" width="398.88" height="0.959"/>
	<rect x="77.44" y="150.152" clip-path="url(#SVGID_2_)" fill="#F99B1C" width="398.88" height="0.961"/>
	<rect x="77.44" y="151.152" clip-path="url(#SVGID_2_)" fill="#F8991D" width="398.88" height="0.961"/>
	<rect x="77.44" y="152.154" clip-path="url(#SVGID_2_)" fill="#F8971D" width="398.88" height="0.959"/>
	<rect x="77.44" y="153.154" clip-path="url(#SVGID_2_)" fill="#F8951D" width="398.88" height="0.961"/>
	<rect x="77.44" y="154.154" clip-path="url(#SVGID_2_)" fill="#F7941E" width="398.88" height="0.961"/>
	<rect x="77.44" y="155.156" clip-path="url(#SVGID_2_)" fill="#F7921E" width="398.88" height="0.959"/>
	<rect x="77.44" y="156.156" clip-path="url(#SVGID_2_)" fill="#F7901E" width="398.88" height="0.961"/>
	<rect x="77.44" y="157.158" clip-path="url(#SVGID_2_)" fill="#F78E1E" width="398.88" height="0.959"/>
	<rect x="77.44" y="158.158" clip-path="url(#SVGID_2_)" fill="#F78D1E" width="398.88" height="0.961"/>
	<rect x="77.44" y="159.158" clip-path="url(#SVGID_2_)" fill="#F68B1F" width="398.88" height="0.961"/>
	<rect x="77.44" y="160.16" clip-path="url(#SVGID_2_)" fill="#F6891F" width="398.88" height="0.959"/>
	<rect x="77.44" y="161.16" clip-path="url(#SVGID_2_)" fill="#F6871F" width="398.88" height="0.961"/>
	<rect x="77.44" y="162.162" clip-path="url(#SVGID_2_)" fill="#F6861F" width="398.88" height="0.959"/>
	<rect x="77.44" y="163.162" clip-path="url(#SVGID_2_)" fill="#F5841F" width="398.88" height="0.959"/>
	<rect x="77.44" y="164.162" clip-path="url(#SVGID_2_)" fill="#F58220" width="398.88" height="0.961"/>
	<rect x="77.44" y="165.164" clip-path="url(#SVGID_2_)" fill="#F58020" width="398.88" height="0.959"/>
	<rect x="77.44" y="166.164" clip-path="url(#SVGID_2_)" fill="#F57E20" width="398.88" height="0.961"/>
	<rect x="77.44" y="167.164" clip-path="url(#SVGID_2_)" fill="#F47D20" width="398.88" height="0.961"/>
	<rect x="77.44" y="168.166" clip-path="url(#SVGID_2_)" fill="#F47B20" width="398.88" height="0.959"/>
	<rect x="77.44" y="169.166" clip-path="url(#SVGID_2_)" fill="#F47920" width="398.88" height="0.961"/>
	<rect x="77.44" y="170.168" clip-path="url(#SVGID_2_)" fill="#F47721" width="398.88" height="0.959"/>
	<rect x="77.44" y="171.168" clip-path="url(#SVGID_2_)" fill="#F47521" width="398.88" height="0.959"/>
	<rect x="77.44" y="172.168" clip-path="url(#SVGID_2_)" fill="#F37321" width="398.88" height="0.961"/>
	<rect x="77.44" y="173.17" clip-path="url(#SVGID_2_)" fill="#F37121" width="398.88" height="0.959"/>
	<rect x="77.44" y="174.17" clip-path="url(#SVGID_2_)" fill="#F37021" width="398.88" height="0.961"/>
	<rect x="77.44" y="175.17" clip-path="url(#SVGID_2_)" fill="#F36E21" width="398.88" height="0.961"/>
	<rect x="77.44" y="176.172" clip-path="url(#SVGID_2_)" fill="#F36C21" width="398.88" height="0.959"/>
	<rect x="77.44" y="177.172" clip-path="url(#SVGID_2_)" fill="#F26922" width="398.88" height="0.961"/>
	<rect x="77.44" y="178.172" clip-path="url(#SVGID_2_)" fill="#F26722" width="398.88" height="0.961"/>
	<rect x="77.44" y="179.174" clip-path="url(#SVGID_2_)" fill="#F26522" width="398.88" height="0.959"/>
	<rect x="77.44" y="180.174" clip-path="url(#SVGID_2_)" fill="#F26322" width="398.88" height="0.961"/>
	<rect x="77.44" y="181.176" clip-path="url(#SVGID_2_)" fill="#F26122" width="398.88" height="0.959"/>
	<rect x="77.44" y="182.176" clip-path="url(#SVGID_2_)" fill="#F15F22" width="398.88" height="0.961"/>
	<rect x="77.44" y="183.176" clip-path="url(#SVGID_2_)" fill="#F15D22" width="398.88" height="0.961"/>
	<rect x="77.44" y="184.178" clip-path="url(#SVGID_2_)" fill="#F15A22" width="398.88" height="0.959"/>
	<rect x="77.44" y="185.178" clip-path="url(#SVGID_2_)" fill="#F15822" width="398.88" height="0.961"/>
	<rect x="77.44" y="186.18" clip-path="url(#SVGID_2_)" fill="#F15623" width="398.88" height="0.959"/>
	<rect x="77.44" y="187.18" clip-path="url(#SVGID_2_)" fill="#F05323" width="398.88" height="0.959"/>
	<rect x="77.44" y="188.18" clip-path="url(#SVGID_2_)" fill="#F05123" width="398.88" height="0.961"/>
	<rect x="77.44" y="189.182" clip-path="url(#SVGID_2_)" fill="#F04E23" width="398.88" height="0.959"/>
	<rect x="77.44" y="190.182" clip-path="url(#SVGID_2_)" fill="#F04C23" width="398.88" height="0.961"/>
	<rect x="77.44" y="191.182" clip-path="url(#SVGID_2_)" fill="#F04923" width="398.88" height="0.961"/>
	<rect x="77.44" y="192.184" clip-path="url(#SVGID_2_)" fill="#EF4623" width="398.88" height="0.959"/>
	<rect x="77.44" y="193.184" clip-path="url(#SVGID_2_)" fill="#EF4423" width="398.88" height="0.961"/>
	<rect x="77.44" y="194.186" clip-path="url(#SVGID_2_)" fill="#EF4123" width="398.88" height="0.959"/>
	<rect x="77.44" y="195.186" clip-path="url(#SVGID_2_)" fill="#EF3E23" width="398.88" height="0.959"/>
	<rect x="77.44" y="196.186" clip-path="url(#SVGID_2_)" fill="#EF3B24" width="398.88" height="0.961"/>
	<rect x="77.44" y="197.188" clip-path="url(#SVGID_2_)" fill="#EF3824" width="398.88" height="0.959"/>
	<rect x="77.44" y="198.188" clip-path="url(#SVGID_2_)" fill="#EE3524" width="398.88" height="0.961"/>
	<rect x="77.44" y="199.188" clip-path="url(#SVGID_2_)" fill="#EE3124" width="398.88" height="0.961"/>
	<rect x="77.44" y="200.189" clip-path="url(#SVGID_2_)" fill="#EE2E24" width="398.88" height="0.959"/>
	<rect x="77.44" y="201.189" clip-path="url(#SVGID_2_)" fill="#EE2A24" width="398.88" height="0.961"/>
	<rect x="77.44" y="202.189" clip-path="url(#SVGID_2_)" fill="#EE2624" width="398.88" height="0.961"/>
	<rect x="77.44" y="203.191" clip-path="url(#SVGID_2_)" fill="#ED2124" width="398.88" height="0.959"/>
	<rect x="77.44" y="204.191" clip-path="url(#SVGID_2_)" fill="#ED1C24" width="398.88" height="0.961"/>
	<rect x="77.44" y="204.58" clip-path="url(#SVGID_2_)" fill="#ED1C24" width="398.88" height="13.68"/>
</g>
<path fill="none" stroke="#939195" stroke-miterlimit="3.8637" d="M406.23,148.676l8.157-13.328l14.59-0.783l5.179,8L406.23,148.676
	L406.23,148.676z M77.441,122.793l74.996,20.246l4.17,8.418l-10.502,9.668l5.915,15.166l15.583-0.834l2.919,7.166l-64.417,18.502
	l15.583-21.916c0,0,20.588,0.418,20.588-0.834c0-1.25-3.753-11.336-3.753-11.336s-2.502-3.412-1.251-5.914
	c1.251-2.502,5.005-4.246,2.085-5.498s-5.421,1.252-9.251,1.252c-3.83,0-16-3.754-16-3.754s-0.911-5.916-4.247-6.332
	c-3.336-0.418-17.668-2.502-17.668-2.502L77.441,122.793L77.441,122.793z M178.939,189.295c0-1.25-27.753-65.668-27.753-65.668
	l14.672,8.834l2.996,8.834l16.834,3.83l-6.749-12.664l-8.417-6.255l-17.668-54.332c0,0,0.341-3.336,3.336-0.417
	c2.996,2.919,19.413,21.004,19.413,21.004l16.834,53.914l7.166,1.252l-4.664-15.583l25.251,30.331l0.417,12.248h31.583
	l-13.081,16.416l-4.587,1.252l-0.417,14.748l-3.875,4.697l-0.94-25.41l4.396-0.941l6.747-4.865l-19.612,1.104
	c0,0,0,11.912-0.47,14.582c-0.47,2.672-3.761,11.77-3.761,11.77l-13.962-51.77l-29.179-1.723l9.097,21.648
	C182.544,176.131,178.939,190.547,178.939,189.295L178.939,189.295z M233.529,154.326l22.276,3.455c0,0,5.485,6.582,5.485,7.209
	s-20.545,1.104-20.545,1.104L233.529,154.326L233.529,154.326z M247.648,186.795c0,0,34.037-16,34.978-15.373
	c0.94,0.627,4.709,2.828,4.709,2.828l-27.769,19.762L247.648,186.795L247.648,186.795z M220.193,155.893l-24.313-25.567l1.411-7.06
	l23.373,23.217L220.193,155.893L220.193,155.893z M220.663,141.938l-23.53-21.963v-5.963l11.455,0.313l12.702,16.313
	L220.663,141.938L220.663,141.938z M273.842,165.146c-0.157-0.471-3.925-4.074-3.925-4.074l-9.411-94.59l4.082-7.216l16.313,10.194
	l-0.47,64.164c0,0,36.858-2.671,37.329-2.828c0.47-0.157,3.926-43.134,3.926-43.134l16.94,30.59l-6.59,45.329l-8.471,10.828
	l-6.433-7.531l2.045-15.059c0,0,8.94-3.455,8.94-3.926s-1.262-4.074-1.262-4.074l-9.41,4.074l0.47-6.433l-6.582,0.478
	l-20.865,67.918l-0.156-50.037l9.724-14.277l-3.448-7.686l-2.358-0.156l-1.254,4.866l-11.76-0.471l0.313,8.314
	C281.529,150.408,273.999,165.617,273.842,165.146L273.842,165.146z M344.119,129.699l11.604,14.903l-7.06,27.918l-33.254,42.672
	l-8.471,2.82l29.963-50.193L344.119,129.699L344.119,129.699z M359.648,154.482c1.411,0,19.762-0.156,19.762-0.156l7.843-6.59
	l24-61.172l18.664-14.12l5.18,0.47l-3.135,5.336l-0.626,4.858l-29.18,65.723l-10.351,6.59l2.351,2.986l6.276-4.082L418,153.385
	l-3.77,6.434l-24.939,9.254l1.41,6.59l-10.508,8.939l-6.902,13.807l-10.978,11.133l0.783-5.648l14.119-32.312l-8.783,0.312
	l-1.889,6.275l-9.724,5.023l2.202,3.291l-22.903,18.82l-9.731,0.635l29.179-33.262C355.566,172.676,359.961,154.795,359.648,154.482
	L359.648,154.482z M408.746,168.914l56-26.037l11.604,0.314l-60.858,33.566L408.746,168.914L408.746,168.914z"/>
<path fill="#FFFFFF" stroke="#000000" stroke-width="0.25" stroke-miterlimit="3.8637" d="M97.818,100.5h49.768v3.319h-3.758
	L154.172,131l11.535-27.358h-4.819V100.5h21.172v3.142h-3.535L165.53,136.5h-13.172l-12.949-32.681h-2.521v8.177h-3.005v-5.349
	c0,0-0.483-2.828-4.065-2.828s-16.354,0-16.354,0v13.655c0,0,11.005,0,12.949,0c1.944,0,2.875-3.888,2.875-3.888h1.944v11.004
	h-2.521c0,0-0.177-3.888-2.651-3.888c-2.475,0-12.949,0-12.949,0v12.772c0,0,14.056-0.354,17.061-0.354
	c3.005,0,4.595-4.949,4.595-4.949h2.298v8.328H97.818v-3.025h4.949v-29.479h-5.125L97.818,100.5L97.818,100.5z"/>
<path fill="#FFFFFF" stroke="#000000" stroke-width="0.25" stroke-miterlimit="3.8637" d="M168.535,136.5v-2.849h2.875
	c0,0,0.707-0.837,2.121-4.242c1.414-3.405,12.112-28.909,12.112-28.909H197l13.349,32.975H213v-30.009h-3.889V100.5h20.949
	l12.818,31.03v-27.711h-4.289V100.5h12.996v3.672h-4.819v29.302h3.228v3.025h-21.702l-11.935-29.323v24.707
	c0,0,0.753,1.767,1.637,1.767s2.828,0.177,2.828,0.177v2.672h-27.535v-2.849h4.065l-10.475-27.358l-10.344,24
	c0,0,0.046,2.828,1.46,2.828s3.182,0,3.182,0v3.379H168.535L168.535,136.5z"/>
<path fill="#FFFFFF" stroke="#000000" stroke-width="0.25" stroke-miterlimit="3.8637" d="M265.818,101.121
	c7.726,0,11.712,3.405,11.712,3.405s1.944,0.53,2.474-0.354s2.875-3.672,2.875-3.672h3.888v13.439h-8.707v-6.409
	c0,0-4.772-3.358-9.237-3.358s-8.707,2.297-8.707,8.707c0,6.409,0,16.177,0,16.177s2.344,5.302,7.293,5.302s7.47-2.298,8-3.182
	s0-9.768,0-9.768h-4.465v-3.228h15.823V136.5h-2.828v-3.088c0-0.946-0.93-2.697-3.228-2.554c-1.868,0.117-4.595,6.551-13.479,6.551
	s-19.051-6.279-19.051-12.112c0-5.832,0.177-11.181,0.177-11.181S249.288,101.121,265.818,101.121L265.818,101.121z"/>
<path fill="#FFFFFF" stroke="#000000" stroke-width="0.25" stroke-miterlimit="3.8637" d="M327.651,100.5h18.168v3.849h-1.638
	c0,0-1.414-0.53-1.414,1.414c0,1.944,0,28.596,0,28.596h12.642c0,0,2.298-3.535,2.651-5.479c0.354-1.944,1.414-3.582,1.414-3.582
	h2.521l-1.638,11.203h-32.354v-2.496h3.758v-29.655h-4.111V100.5L327.651,100.5z"/>
<path fill="#FFFFFF" stroke="#000000" stroke-width="0.25" stroke-miterlimit="3.8637" d="M363.233,103.642V100.5H381v3.849h-2.65
	c0,0-1.414-0.53-1.414,1.414c0,1.944-0.047,27.358-0.047,27.358s0.508,1.15,1.265,1.15c0.53,0,3.847,0,3.847,0v2.854h-20.125v-2.875
	H365c0,0,1.375-0.375,1.375-1.375s0-27.375,0-27.375s-0.5-1.25-1.25-1.25S363.233,103.642,363.233,103.642L363.233,103.642z"/>
<path fill-rule="evenodd" clip-rule="evenodd" fill="#FFFFFF" d="M400.125,104.125c-6.75,0-7.75,6.5-7.75,6.5v18.5
	c0,2,1.409,5.125,8.534,5.125s8.341-5.125,8.341-5.125V111.5C409.25,106.5,406,104.125,400.125,104.125L400.125,104.125z
	 M399.75,101.875c9,0,20.5,3.875,20.5,17.25s-10.75,17.8-20.5,17.8S381,132.875,381,120.5S386.875,101.875,399.75,101.875
	L399.75,101.875z"/>
<path fill="none" stroke="#000000" stroke-width="0.25" stroke-miterlimit="3.8637" d="M400.125,104.125c-6.75,0-7.75,6.5-7.75,6.5
	v18.5c0,2,1.409,5.125,8.534,5.125s8.341-5.125,8.341-5.125V111.5C409.25,106.5,406,104.125,400.125,104.125L400.125,104.125z
	 M399.75,101.875c9,0,20.5,3.875,20.5,17.25s-10.75,17.8-20.5,17.8S381,132.875,381,120.5S386.875,101.875,399.75,101.875
	L399.75,101.875z"/>
<path fill="#FFFFFF" stroke="#000000" stroke-width="0.25" stroke-miterlimit="3.8637" d="M287.982,100.5l39.074,0.007
	l-0.005,11.488h-3.004v-5.349c0,0-0.484-2.828-4.065-2.828s-16.354,0-16.354,0v13.655c0,0,11.004,0,12.949,0
	c1.943,0,2.874-3.888,2.874-3.888h1.944v11.004h-2.521c0,0-0.177-3.888-2.651-3.888c-2.474,0-12.948,0-12.948,0v12.772
	c0,0,14.056-0.354,17.061-0.354c3.004,0,4.595-4.949,4.595-4.949h2.298v8.328h-39.246v-3.025h4.948v-29.479h-4.994L287.982,100.5
	L287.982,100.5z"/>
<path fill="#FFFFFF" stroke="#000000" stroke-width="0.25" stroke-miterlimit="3.8637" d="M423.077,132.257V103.81h-3.888v-2.965
	h20.948l12.818,31.03v-26.218c0-1-0.851-1.493-0.851-1.493h-3.438v-3.319h12.995v3.389h-3.968c0,0-0.851,0.424-0.851,1.612
	c0,0.562,0,27.974,0,27.974h3.228v3.025H438.37l-11.935-29.323v24.707c0,0,0.754,1.768,1.637,1.768c0.884,0,2.828,0.176,2.828,0.176
	v2.672h-11.661v-2.849l2.084-0.096C422.719,133.9,423.077,132.257,423.077,132.257L423.077,132.257z"/>
</svg>
